# xmcd
#
# Track frame offsets:
#	150
#	35887
#	79939
#
# Disc length: 1351 seconds
#
# Revision: 1
# Processed by: cddbd v1.5.2PL0 Copyright (c) Steve Scherf et al.
# Submitted via: audiograbber 1.83.01
#
DISCID=21054503
DTITLE=Grateful Dead - 78-10-17 Winterland Arena, San Francisco CA
DYEAR=1900
DGENRE=
TTITLE0=If I Had The World To Give
TTITLE1=Around and Around
TTITLE2=US Blues
EXTD=
EXTT0=
EXTT1=
EXTT2=
PLAYORDER=
